<?xml version="1.0" encoding="UTF-8"?>
<!-- Generator: Adobe Illustrator 26.0.3, SVG Export Plug-In . SVG Version: 6.00 Build 0)  -->
<svg xmlns="http://www.w3.org/2000/svg" xmlns:xlink="http://www.w3.org/1999/xlink" version="1.1" id="Capa_1" x="0px" y="0px" viewBox="0 0 512 512" style="enable-background:new 0 0 512 512;" xml:space="preserve" width="512" height="512">
<g id="Sound">
	<path d="M297.99,1.016c-3.892-1.799-8.474-1.174-11.741,1.602l-163.02,138.568H52.525C23.563,141.187,0,164.749,0,193.712v124.576   c0,28.963,23.563,52.525,52.525,52.525h70.703l163.02,138.568c2.028,1.724,4.563,2.618,7.126,2.618c1.565,0,3.14-0.334,4.615-1.016   c3.892-1.8,6.383-5.696,6.383-9.984V11C304.373,6.712,301.881,2.815,297.99,1.016z M116.271,348.814H52.525   C35.694,348.814,22,335.12,22,318.288V193.712c0-16.832,13.694-30.525,30.525-30.525h63.746V348.814z M282.373,477.213   L138.271,354.728V157.272L282.373,34.787V477.213z"/>
	<path style="fill:#33CCCC;" d="M376.424,391.576c-6.075,0-11-4.925-11-11s4.925-11,11-11C439.05,369.576,490,318.626,490,256   c0-62.626-50.95-113.576-113.576-113.576c-6.075,0-11-4.925-11-11c0-6.075,4.925-11,11-11C451.181,120.424,512,181.243,512,256   C512,330.757,451.181,391.576,376.424,391.576z"/>
	<path style="fill:#33CCCC;" d="M376.424,308.525c-6.075,0-11-4.925-11-11s4.925-11,11-11c16.832,0,30.525-13.693,30.525-30.525   c0-16.832-13.694-30.525-30.525-30.525c-6.075,0-11-4.925-11-11c0-6.075,4.925-11,11-11c28.962,0,52.525,23.562,52.525,52.525   C428.949,284.963,405.386,308.525,376.424,308.525z"/>
</g>















</svg>
